<svg xmlns="http://www.w3.org/2000/svg" xmlns:xlink="http://www.w3.org/1999/xlink" width="158" height="147" viewBox="0 0 158 147"><defs><path id="fid8a" d="M288.672 7307.968c20.27 0 36.703 16.433 36.703 36.704 0 20.27-16.433 36.703-36.703 36.703-20.27 0-36.703-16.433-36.703-36.703 0-20.271 16.432-36.704 36.703-36.704z"/><path id="fid8b" d="M288.672 7294.187c27.882 0 50.484 22.603 50.484 50.485 0 27.881-22.602 50.484-50.484 50.484s-50.485-22.603-50.485-50.484c0-27.882 22.603-50.485 50.485-50.485z"/><path id="fid8c" d="M289 7266c43.63 0 79 35.37 79 79s-35.37 79-79 79-79-35.37-79-79 35.37-79 79-79z"/><clipPath id="fid8d"><use fill="#fff" xlink:href="#fid8a"/></clipPath><clipPath id="fid8e"><use fill="#fff" xlink:href="#fid8b"/></clipPath><clipPath id="fid8f"><use fill="#fff" xlink:href="#fid8c"/></clipPath></defs><g><g transform="translate(-210 -7272)"><use fill="#fff" fill-opacity="0" stroke="#fff" stroke-miterlimit="50" stroke-width="2" clip-path="url(&quot;#fid8d&quot;)" xlink:href="#fid8a"/></g><g transform="translate(-210 -7272)"><use fill="#fff" fill-opacity="0" stroke="#fff" stroke-miterlimit="50" stroke-width="2" clip-path="url(&quot;#fid8e&quot;)" xlink:href="#fid8b"/></g><g transform="translate(-210 -7272)"><use fill="#fff" fill-opacity="0" stroke="#fff" stroke-miterlimit="50" stroke-width="2" clip-path="url(&quot;#fid8f&quot;)" xlink:href="#fid8c"/></g></g></svg>