<svg xmlns="http://www.w3.org/2000/svg" xmlns:xlink="http://www.w3.org/1999/xlink" width="91" height="15"><defs><path id="a" d="M47.282 3039.438l5.657-5.657a1 1 0 0 1 1.414 1.415l-5.45 5.45 5.157 5.156a1 1 0 0 1-1.414 1.415l-5.657-5.657a1 1 0 0 1 0-1.414c0-.256.098-.512.293-.708z"/><path id="b" d="M57 3041a1 1 0 0 1 1-1h78a1 1 0 0 1 0 2H58a1 1 0 0 1-1-1z"/></defs><use fill="#883eca" xlink:href="#a" transform="translate(-46 -3033)"/><use fill="#883eca" xlink:href="#b" transform="translate(-46 -3033)"/></svg>